<svg xmlns="http://www.w3.org/2000/svg" viewBox="0 0 1600 900" role="img" aria-label="Warm pixel guild hall backdrop">
  <defs>
    <pattern id="wood" width="96" height="48" patternUnits="userSpaceOnUse">
      <rect width="96" height="48" fill="#3a1d12"/>
      <path d="M0 12h96M0 36h96M24 0v12M72 12v24M42 36v12" stroke="#5a2d19" stroke-width="4"/>
      <path d="M10 22h34M55 8h28M18 42h52" stroke="#8a5130" stroke-width="2" opacity=".45"/>
    </pattern>
    <linearGradient id="room" x1="0" x2="0" y1="0" y2="1">
      <stop stop-color="#5a2718"/>
      <stop offset=".55" stop-color="#2b130d"/>
      <stop offset="1" stop-color="#120806"/>
    </linearGradient>
    <radialGradient id="candle" cx="50%" cy="18%" r="58%">
      <stop stop-color="#ffe29a" stop-opacity=".68"/>
      <stop offset=".42" stop-color="#d69b3d" stop-opacity=".28"/>
      <stop offset="1" stop-color="#120806" stop-opacity="0"/>
    </radialGradient>
    <radialGradient id="ruby" cx="80%" cy="22%" r="52%">
      <stop stop-color="#8e2f21" stop-opacity=".38"/>
      <stop offset="1" stop-color="#120806" stop-opacity="0"/>
    </radialGradient>
  </defs>

  <rect width="1600" height="900" fill="url(#room)"/>
  <rect width="1600" height="660" fill="url(#wood)" opacity=".72"/>
  <rect width="1600" height="900" fill="url(#ruby)"/>
  <rect x="0" y="610" width="1600" height="290" fill="#1b0c08"/>
  <path d="M0 638h1600" stroke="#7a3e22" stroke-width="8" opacity=".7"/>

  <rect x="178" y="136" width="330" height="245" fill="#2c140d" stroke="#d69b3d" stroke-width="10"/>
  <rect x="210" y="170" width="266" height="174" fill="#e8bb69" opacity=".8"/>
  <path d="M238 210h190M238 250h168M238 292h204" stroke="#7a3e22" stroke-width="12" opacity=".8"/>

  <rect x="1090" y="150" width="320" height="214" fill="#2c140d" stroke="#d69b3d" stroke-width="10"/>
  <rect x="1130" y="190" width="240" height="134" fill="#e8bb69" opacity=".72"/>
  <path d="M1160 232h172M1160 276h144" stroke="#7a3e22" stroke-width="12" opacity=".72"/>

  <circle cx="800" cy="150" r="170" fill="url(#candle)"/>
  <rect x="764" y="82" width="72" height="108" fill="#442012" stroke="#d69b3d" stroke-width="8"/>
  <rect x="780" y="112" width="40" height="44" fill="#ffe29a"/>
  <rect x="790" y="98" width="20" height="18" fill="#8e2f21"/>

  <rect x="500" y="558" width="600" height="184" fill="#4a2114" stroke="#d69b3d" stroke-width="10"/>
  <rect x="560" y="516" width="480" height="86" fill="#e6bc70" stroke="#7a3e22" stroke-width="8"/>
  <path d="M598 548h292M598 578h360" stroke="#8e2f21" stroke-width="9" opacity=".52"/>
  <rect x="618" y="684" width="364" height="28" fill="#7a3e22" opacity=".76"/>

  <path d="M0 760h1600v140H0z" fill="#100604"/>
  <path d="M170 790h1260" stroke="#5a2d19" stroke-width="8" opacity=".74"/>
  <rect width="1600" height="900" fill="#120806" opacity=".18"/>
</svg>
